<svg width="243" height="250" viewBox="0 0 243 250" fill="none" xmlns="http://www.w3.org/2000/svg">
<path d="M26.2272 31.1654C19.9449 20.9708 14.2273 5.83463 13.2272 4.5C12.2272 3.16537 11.3294 1.75558 10.2272 1.16537C8.47179 0.225353 7.16725 -0.283629 5.22724 0.165369C3.3249 0.605647 2.35615 1.57217 1.22724 3.16537C0.0486145 4.82872 -0.272701 7 0.227267 9.5C0.727234 12 5.76306 23.9117 11.2272 33.1654C14.5868 38.8548 16.8347 41.8265 20.7272 47.1654C25.8833 54.2373 34.7272 64.6654 34.7272 64.6654C34.7272 64.6654 37.5474 61.8906 39.7272 60.6654C42.7435 58.97 48.2272 58.1654 48.2272 58.1654C48.2272 58.1654 33.4939 42.9574 26.2272 31.1654Z" fill="#84B060"/>
<circle cx="62.5" cy="104.5" r="48.5" fill="#8B68C6"/>
<circle cx="125.5" cy="201.5" r="48.5" fill="#513883"/>
<circle cx="125.5" cy="83.5" r="48.5" fill="#A58ED3"/>
<circle cx="180.5" cy="125.5" r="48.5" fill="#6E50A5"/>
<circle cx="55.5" cy="180.5" r="48.5" fill="#6E50A5"/>
<circle cx="194.5" cy="201.5" r="48.5" fill="#8B68C6"/>
<circle cx="118.5" cy="145.5" r="48.5" fill="#8B68C6"/>
</svg>
